<?xml version="1.0"?><svg width="673.11975" height="425.14798" xmlns="http://www.w3.org/2000/svg" xmlns:xlink="http://www.w3.org/1999/xlink">
 <defs>
  <linearGradient id="linearGradient4573">
   <stop stop-color="#d19b75" offset="0" id="stop4575"/>
   <stop stop-color="#e8cdba" stop-opacity="0" offset="1" id="stop4577"/>
  </linearGradient>
  <linearGradient y2="0.510628" x2="0.5" y1="0.025218" x1="0.511202" id="linearGradient2569" xlink:href="#linearGradient4573"/>
 </defs>
 <metadata id="metadata7">image/svg+xml</metadata>
 <g>
  <title>Layer 1</title>
  <g id="layer4">
   <g transform="matrix(-0.0107501, -0.999942, 0.999942, -0.0107501, -89.2547, 638.714)" id="g2537">
    <path fill="#000000" fill-rule="evenodd" stroke="#000000" stroke-width="1.097685px" id="path3351" d="m207.110657,652.63501c6.854126,62.146729 27.263245,89.05658 48.425888,100.986572c21.162643,11.930054 52.716812,17.829834 116.970963,1.469727c-36.607666,-9.610779 -41.547424,-11.603088 -74.566559,-43.251282c-13.075348,-29.308472 -10.127716,-57.888672 17.145294,-85.363159l-107.975586,26.158142z"/>
    <g id="g4324" transform="matrix(1.01158, 0, 0, 0.792875, -0.681322, 124.343)">
     <path fill="#000000" fill-rule="evenodd" stroke="#000000" stroke-width="1.027772px" d="m454.804321,623.243103c-4.839478,-84.695618 -30.023682,-183.145142 -87.005646,-246.983826c-26.071442,-12.313263 -49.298645,-11.509521 -78.585785,-5.613251c-28.853455,5.80896 -50.741547,41.153198 -67.359207,108.05542c-21.10643,84.973907 -15.436493,204.884308 -15.436493,204.884308c95.860092,-36.125793 182.121933,-42.479858 248.387131,-60.342651z" id="path4322"/>
     <path fill="#87cdde" fill-rule="evenodd" stroke="#000000" stroke-width="1px" id="path2370" d="m450.956085,621.991089c-4.70871,-82.406982 -29.212433,-178.196198 -84.654633,-240.309845c-25.366943,-11.98056 -47.966492,-11.198547 -76.462219,-5.461609c-28.073792,5.652008 -49.370453,40.041199 -65.539063,105.13559c-20.536102,82.677734 -15.019348,199.347961 -15.019348,199.347961c93.269775,-35.149658 177.200653,-41.33197 241.675262,-58.712097z"/>
    </g>
    <path fill="#000000" fill-rule="evenodd" stroke-width="1px" id="path3343" d="m261.681427,550.645508c13.270966,31.998108 27.560608,81.132263 100.312286,91.58075c32.369568,4.648865 63.196106,8.659302 106.938751,-10.252014c40.184845,-17.373169 8.385284,-83.980896 -19.304291,-83.196411c-33.671326,0.953857 -43.679352,-4.664307 -64.462891,-17.940552c-4.960724,-18.049377 -27.293915,-46.828491 -49.688965,-59.74176c-35.878052,-20.687744 -58.130981,-9.891174 -72.690674,8.16394c-14.632492,18.145325 -10.469055,48.80603 -1.104218,71.386047z"/>
    <g id="g2360" transform="matrix(0.811811, -0.583921, 0.583921, 0.811811, -229.645, 279.385)">
     <path fill="#000000" fill-rule="evenodd" stroke-width="1.042551px" d="m429.363831,625.960632c15.441467,-0.169983 39.069122,1.471802 38.513702,17.61731c-0.553528,16.091248 -6.145721,15.334839 -14.485718,17.102417c8.652313,1.221741 14.184784,0.648865 13.408173,17.102417c-0.728516,15.434387 -15.6138,12.955566 -21.35318,12.844177c9.993011,4.137024 11.954956,8.534546 11.848083,16.448364c-0.154205,11.088257 -19.525543,17.828613 -49.677704,14.904175c-24.59494,-2.385437 -52.682343,-18.285278 -51.501984,-67.044495c0.745636,-30.799561 15.237061,-52.124878 49.440369,-58.322632c17.264313,-3.128296 39.970093,-1.620178 45.64917,5.044495c9.21637,10.815796 -3.3573,21.180725 -21.840912,24.303772z" id="path14684"/>
     <path fill="#e8cdba" fill-rule="evenodd" stroke-width="1px" id="path14682" d="m416.018921,628.855713c16.816925,-0.163025 46.68042,-1.06842 47.744934,14.388855c1.616333,23.142883 -20.681366,15.429749 -41.204529,17.659119c23.882019,4.46875 42.885925,-2.221497 39.896454,17.659058c-2.763702,18.378906 -26.722992,7.655029 -41.204529,9.810608c13.919586,3.447571 31.947845,4.735779 32.047943,17.659119c0.094543,12.204712 -20.228668,16.172791 -47.090881,12.426758c-22.804413,-3.180176 -46.897522,-11.964539 -47.090881,-60.825745c-0.116913,-29.550964 12.430542,-52.82312 44.474731,-57.555542c13.946259,-2.059631 29.667084,-4.967957 42.512604,3.270203c13.669006,8.766296 -8.608521,21.257324 -30.085846,25.507568z"/>
    </g>
    <path fill="#000000" fill-rule="evenodd" stroke-width="1.04528px" d="m474.891907,750.321228c-21.45816,-19.049072 -18.485535,-53.475159 15.234955,-91.272705c21.715759,-23.340393 52.630585,-77.292053 75.915985,-59.220703c14.041138,10.897034 6.888794,20.056519 2.805237,26.227356c5.02533,-4.503357 11.36676,-13.767944 24.010498,-2.870667c13.256165,11.42511 4.837769,17.530884 0.432617,22.776855c4.344727,-3.422607 16.059448,-6.023499 23.8125,-0.274353c12.102234,8.974182 1.687683,22.387573 -1.903748,25.406738c4.159302,-1.418091 9.677917,-2.585754 12.854309,4.963318c6.284607,14.93634 6.33136,14.473877 -24.516296,41.33551c-39.067505,34.019287 -99.090515,59.165955 -128.646057,32.92865z" id="path14678"/>
    <g transform="matrix(0.792724, 0.164675, -0.140401, 0.675873, 105.219, -118.127)" id="layer1">
     <g id="g4581">
      <path fill="#e8cdba" id="path3686" d="m434.436401,764.946228c-52.295776,-7.712341 -96.748413,-42.658081 -126.413147,-85.105896c-30.873108,-43.897644 -46.945099,-96.996765 -50.411285,-150.255432c-6.421478,-10.239868 -22.329224,-11.65686 -23.966766,-26.056274c-3.729004,-10.621765 -2.637573,-23.112183 0.182617,-33.971924c1.927795,-15.113342 19.886475,-18.147827 28.507965,-22.752014c12.503815,-64.375732 44.98349,-127.458893 99.536469,-165.824249c27.001282,-19.825623 59.870483,-31.665283 93.47113,-32.058441c7.007996,-2.008728 21.564392,3.175201 22.286255,-6.968842c-2.427307,-7.067902 -1.377502,-15.24472 3.062195,-19.776123c-10.383972,-5.981903 -13.457703,-21.06073 0.446655,-25.191742c15.774109,-5.128723 15.723816,17.707855 24.458679,25.786804c3.657166,12.215424 -15.225403,13.896576 -7.438904,27.028564c6.04718,8.111786 23.556946,7.499115 33.0578,14.741821c53.099609,25.427673 91.604431,74.843231 112.126892,129.168488c7.88031,20.476349 13.479492,41.816925 16.848877,63.492767c12.841736,-0.331299 31.578491,4.037964 31.279663,20.12262c0.898438,16.398254 -0.898376,34.602295 -11.587891,47.770508c-6.014282,7.836182 -20.420837,4.20752 -17.538208,16.954651c-6.897705,63.174072 -31.435608,126.206909 -77.582581,171.082764c-31.963013,31.969421 -75.548218,54.046631 -121.471741,53.293152c-9.637085,0.104187 -19.274414,-0.454224 -28.854675,-1.481201z"/>
      <path fill="url(#linearGradient2569)" d="m434.436401,764.946228c-52.295776,-7.712341 -96.748413,-42.658081 -126.413147,-85.105896c-30.873108,-43.897644 -46.945099,-96.996765 -50.411285,-150.255432c-6.421478,-10.239868 -22.329224,-11.65686 -23.966766,-26.056274c-3.729004,-10.621765 -2.637573,-23.112183 0.182617,-33.971924c1.927795,-15.113342 19.886475,-18.147827 28.507965,-22.752014c12.503815,-64.375732 44.98349,-127.458893 99.536469,-165.824249c27.001282,-19.825623 59.870483,-31.665283 93.47113,-32.058441c7.007996,-2.008728 21.564392,3.175201 22.286255,-6.968842c-2.427307,-7.067902 -1.377502,-15.24472 3.062195,-19.776123c-10.383972,-5.981903 -13.457703,-21.06073 0.446655,-25.191742c15.774109,-5.128723 15.723816,17.707855 24.458679,25.786804c3.657166,12.215424 -15.225403,13.896576 -7.438904,27.028564c6.04718,8.111786 23.556946,7.499115 33.0578,14.741821c53.099609,25.427673 91.604431,74.843231 112.126892,129.168488c7.88031,20.476349 13.479492,41.816925 16.848877,63.492767c12.841736,-0.331299 31.578491,4.037964 31.279663,20.12262c0.898438,16.398254 -0.898376,34.602295 -11.587891,47.770508c-6.014282,7.836182 -20.420837,4.20752 -17.538208,16.954651c-6.897705,63.174072 -31.435608,126.206909 -77.582581,171.082764c-31.963013,31.969421 -75.548218,54.046631 -121.471741,53.293152c-9.637085,0.104187 -19.274414,-0.454224 -28.854675,-1.481201z" id="path1912"/>
      <path fill="#000000" d="m434.436401,764.946228c-52.295776,-7.712341 -96.748413,-42.658081 -126.413147,-85.105896c-30.873108,-43.897644 -46.945099,-96.996765 -50.411285,-150.255432c-6.421478,-10.239868 -22.329224,-11.65686 -23.966766,-26.056274c-3.729004,-10.621765 -2.637573,-23.112183 0.182617,-33.971924c1.927795,-15.113342 19.886475,-18.147827 28.507965,-22.752014c12.503815,-64.375732 44.98349,-127.458893 99.536469,-165.824249c27.001282,-19.825623 59.870483,-31.665283 93.47113,-32.058441c7.007996,-2.008728 21.564392,3.175201 22.286255,-6.968842c-2.427307,-7.067902 -1.377502,-15.24472 3.062195,-19.776123c-10.383972,-5.981903 -13.457703,-21.06073 0.446655,-25.191742c15.774109,-5.128723 15.723816,17.707855 24.458679,25.786804c3.657166,12.215424 -15.225403,13.896576 -7.438904,27.028564c6.04718,8.111786 23.556946,7.499115 33.0578,14.741821c53.099609,25.427673 91.604431,74.843231 112.126892,129.168488c7.88031,20.476349 13.479492,41.816925 16.848877,63.492767c12.841736,-0.331299 31.578491,4.037964 31.279663,20.12262c0.898438,16.398254 -0.898376,34.602295 -11.587891,47.770508c-6.014282,7.836182 -20.420837,4.20752 -17.538208,16.954651c-6.897705,63.174072 -31.435608,126.206909 -77.582581,171.082764c-31.963013,31.969421 -75.548218,54.046631 -121.471741,53.293152c-9.637085,0.104187 -19.274414,-0.454224 -28.854675,-1.481201zm52.10022,-4.770569c52.803833,-8.107544 97.395264,-44.243774 126.21106,-87.909241c27.124329,-41.12793 41.704773,-89.626953 46.200256,-138.449036c2.107422,-9.659302 20.504578,-5.973267 22.59436,-18.821411c4.949768,-10.720154 5.683777,-22.888855 6.326721,-34.475647c0.154846,-14.233032 -14.287231,-19.3974 -26.213013,-18.846558c-11.09314,-2.467163 -5.783752,-16.686218 -9.808655,-24.64563c-13.833557,-61.626923 -47.46698,-121.119598 -101.016785,-156.411377c-16.20105,-10.536011 -34.065491,-18.589661 -52.822754,-23.310516c-5.483154,8.932983 -21.199829,4.33725 -23.52887,15.300903c-12.329041,11.937378 -23.03302,-9.736084 -13.59552,-19.52887c-7.994751,-1.256927 -16.998596,1.080688 -25.311462,1.973785c-49.62323,7.389435 -92.550232,39.384399 -121.281799,79.481659c-21.298523,29.508636 -35.810303,63.613617 -44.622528,98.775726c-0.54422,11.523499 -4.4729,23.775208 -17.977203,22.30481c-15.972473,6.781494 -17.959351,27.315308 -15.029999,42.2677c0.564545,17.132507 21.201324,18.462708 26.267548,31.721863c-0.681732,18.341309 3.429077,36.687744 7.337006,54.585144c14.133026,58.469543 46.605621,114.28363 96.796539,148.748962c34.524841,23.935059 77.888245,34.655029 119.475098,27.237732zm-30.009888,-61.452759c-13.947998,-1.672913 -27.084167,-6.497437 -39.568115,-12.763184c-11.965576,-4.713623 -22.855408,-11.165833 -33.450562,-18.396057c-10.893372,-6.651489 -14.302307,-19.659546 -22.296814,-29.002258c-8.067627,-14.618469 -15.507263,-30.311035 -15.618896,-47.410645c-2.906128,-10.535217 0.665039,-25.010742 -2.313354,-33.10144c-10.834961,-0.447327 -22.571838,6.004211 -32.718323,1.083557c-5.371948,-9.825806 14.461426,0.628662 19.864868,-3.413879c13.249268,-1.346191 26.694397,-8.841064 31.49231,-21.819885c1.796265,-5.792725 10.36261,-10.934082 6.042542,-0.855164c-3.217407,12.590454 -18.987549,17.683228 -20.039978,30.76886c0.298157,12.359253 1.141846,24.815186 2.847412,37.072937c1.550293,12.014282 7.845764,22.160461 13.229614,32.707397c8.725342,15.369263 19.162415,31.639954 36.309326,38.451599c11.729797,7.466614 24.795593,11.961853 37.398132,17.579163c11.937439,2.934448 24.69104,7.164001 36.79718,2.717163c17.778625,-5.97168 34.787048,-14.093201 50.03302,-25.055359c12.123962,-6.136658 20.762451,-16.198669 27.03241,-28.03479c6.451477,-11.072754 12.059265,-22.775085 15.849976,-35.047607c3.488098,-14.378662 2.609863,-29.516113 2.631348,-44.128235c-0.756775,-11.051636 -6.152771,-20.422729 -14.679749,-27.169006c-4.515503,-3.061096 -12.620361,-20.638611 -3.033997,-10.944031c7.229919,10.026062 16.566162,20.842407 30.278015,18.904297c11.792419,0.633667 24.36792,0.781799 35.018494,-5.082397c8.607117,5.031494 -10.888428,9.532471 -15.591858,8.968323c-9.163086,2.519165 -25.090576,-2.715881 -30.010986,3.401428c3.419983,15.412231 2.353027,31.38446 1.264587,46.992615c-3.113464,22.956726 -15.830322,43.159241 -27.99115,62.303345c-11.387695,11.495178 -26.12085,18.96106 -39.928772,27.109802c-13.642212,6.152771 -27.549622,13.278992 -42.645996,14.684265c-2.077209,0.052856 -4.163269,-0.105347 -6.200684,-0.520813zm189.846313,-182.602539c0.484009,-9.647949 19.352417,6.836975 20.067078,-7.498962c4.162537,-8.731995 6.774353,-31.550476 -6.389038,-31.222534c-3.742554,2.034058 -17.808228,10.727478 -10.726501,0.637878c10.629395,-11.047058 27.952881,-2.821838 24.497681,12.71283c0.314087,11.221008 -1.919556,29.779053 -16.968323,28.165955c-3.626221,0 -7.530029,-0.484131 -10.480896,-2.795166zm-391.828796,-9.424561c-7.80957,-10.498108 -11.978271,-25.868713 -3.90448,-37.1828c4.349487,-6.181335 22.108765,1.404419 13.766602,4.712402c-14.112854,-7.173462 -17.407928,15.267944 -10.545166,23.608582c1.891449,8.399292 10.781647,4.392639 13.563965,3.351868c2.676025,6.131531 -9.639618,9.672607 -12.88092,5.509949zm219.791931,-52.51947c-13.395142,-11.046692 13.251892,-27.875854 18.024292,-11.491882c4.391663,10.272461 -10.710938,20.627686 -18.024292,11.491882zm-39,-9c-13.395142,-11.046692 13.251892,-27.875854 18.024292,-11.491882c4.391663,10.272461 -10.710938,20.627686 -18.024292,11.491882zm79.599976,-22.911926c-5.763062,-6.059692 -25.995117,-9.27948 -23.250427,-16.032471c10.01062,0.819885 26.137695,8.006042 28.221313,16.468323c-1.47052,1.025635 -3.62146,0.579773 -4.970886,-0.435852zm-106.668091,-6.265625c7.288269,-10.569336 21.27063,-13.074463 32.36084,-17.724335c4.81543,9.701447 -14.848206,8.048737 -19.555481,14.742035c-3.742676,2.190186 -8.387024,5.00238 -12.805359,2.9823zm61.929443,-145.172455c0.631165,-14.580292 28.10022,-6.35025 23.416565,-23.943481c-2.899353,-6.630859 -3.317078,-15.711853 5.830688,-15.882538c7.95282,-11.491028 -12.305298,-19.386139 -11.342651,-30.180664c-12.40863,-3.485779 -16.65387,15.617157 -3.480652,18.009613c3.694275,8.64212 -10.715576,17.007843 -1.637695,25.680542c-1.995117,11.431244 -30.939453,9.404602 -18.816833,26.688416c1.544006,2.006317 4.683594,1.734131 6.030579,-0.371887z" id="path1882"/>
      <path fill="#000000" d="m456.526733,698.7229c-13.947998,-1.672913 -27.084167,-6.497437 -39.568115,-12.763184c-11.965576,-4.713623 -22.855408,-11.165833 -33.450562,-18.396057c-10.893372,-6.651489 -14.302307,-19.659546 -22.296814,-29.002258c-8.067627,-14.618469 -15.507263,-30.311035 -15.618896,-47.410645c-2.906128,-10.535217 0.665039,-25.010742 -2.313354,-33.10144c-10.834961,-0.447327 -22.571838,6.004211 -32.718323,1.083557c-5.371948,-9.825806 14.461426,0.628662 19.864868,-3.413879c13.249268,-1.346191 26.694397,-8.841064 31.49231,-21.819885c1.796265,-5.792725 10.36261,-10.934082 6.042542,-0.855164c-3.217407,12.590454 -18.987549,17.683228 -20.039978,30.76886c0.298157,12.359253 1.141846,24.815186 2.847412,37.072937c1.550293,12.014282 7.845764,22.160461 13.229614,32.707397c8.725342,15.369263 19.162415,31.639954 36.309326,38.451599c11.729797,7.466614 24.795593,11.961853 37.398132,17.579163c11.937439,2.934448 24.69104,7.164001 36.79718,2.717163c17.778625,-5.97168 34.787048,-14.093201 50.03302,-25.055359c12.123962,-6.136658 20.762451,-16.198669 27.03241,-28.03479c6.451477,-11.072754 12.059265,-22.775085 15.849976,-35.047607c3.488098,-14.378662 2.609863,-29.516113 2.631348,-44.128235c-0.756775,-11.051636 -6.152771,-20.422729 -14.679749,-27.169006c-4.515503,-3.061096 -12.620361,-20.638611 -3.033997,-10.944031c7.229919,10.026062 16.566162,20.842407 30.278015,18.904297c11.792419,0.633667 24.36792,0.781799 35.018494,-5.082397c8.607117,5.031494 -10.888428,9.532471 -15.591858,8.968323c-9.163086,2.519165 -25.090576,-2.715881 -30.010986,3.401428c3.419983,15.412231 2.353027,31.38446 1.264587,46.992615c-3.113464,22.956726 -15.830322,43.159241 -27.99115,62.303345c-11.387695,11.495178 -26.12085,18.96106 -39.928772,27.109802c-13.642212,6.152771 -27.549622,13.278992 -42.645996,14.684265c-2.077209,0.052856 -4.163269,-0.105347 -6.200684,-0.520813z" id="path1908"/>
      <path fill="#000000" d="m646.373047,516.120361c0.484009,-9.647949 19.352417,6.836975 20.067078,-7.498962c4.162537,-8.731995 6.774353,-31.550476 -6.389038,-31.222534c-3.742554,2.034058 -17.808228,10.727478 -10.726501,0.637878c10.629395,-11.047058 27.952881,-2.821838 24.497681,12.71283c0.314087,11.221008 -1.919556,29.779053 -16.968323,28.165955c-3.626221,0 -7.530029,-0.484131 -10.480896,-2.795166z" id="path1906"/>
      <path fill="#000000" d="m254.54425,506.695801c-7.80957,-10.498108 -11.978271,-25.868713 -3.90448,-37.1828c4.349487,-6.181335 22.108765,1.404419 13.766602,4.712402c-14.112854,-7.173462 -17.407928,15.267944 -10.545166,23.608582c1.891449,8.399292 10.781647,4.392639 13.563965,3.351868c2.676025,6.131531 -9.639618,9.672607 -12.88092,5.509949z" id="path1904"/>
      <path fill="#000000" d="m474.336182,454.176331c-13.395142,-11.046692 13.251892,-27.875854 18.024292,-11.491882c4.391663,10.272461 -10.710938,20.627686 -18.024292,11.491882z" id="path1902"/>
      <path fill="#000000" d="m435.336182,445.176331c-13.395142,-11.046692 13.251892,-27.875854 18.024292,-11.491882c4.391663,10.272461 -10.710938,20.627686 -18.024292,11.491882z" id="path1900"/>
      <path fill="#000000" d="m514.936157,422.264404c-5.763062,-6.059692 -25.995117,-9.27948 -23.250427,-16.032471c10.01062,0.819885 26.137695,8.006042 28.221313,16.468323c-1.47052,1.025635 -3.62146,0.579773 -4.970886,-0.435852z" id="path1898"/>
      <path fill="#000000" d="m408.268066,415.998779c7.288269,-10.569336 21.27063,-13.074463 32.36084,-17.724335c4.81543,9.701447 -14.848206,8.048737 -19.555481,14.742035c-3.742676,2.190186 -8.387024,5.00238 -12.805359,2.9823z" id="path1896"/>
      <path fill="#947968" d="m470.19751,270.826324c0.631165,-14.580292 28.10022,-6.35025 23.416565,-23.943481c-2.899353,-6.630859 -3.317078,-15.711853 5.830688,-15.882538c7.95282,-11.491028 -12.305298,-19.386139 -11.342651,-30.180664c-12.40863,-3.485779 -16.65387,15.617157 -3.480652,18.009613c3.694275,8.64212 -10.715576,17.007843 -1.637695,25.680542c-1.995117,11.431244 -30.939453,9.404602 -18.816833,26.688416c1.544006,2.006317 4.683594,1.734131 6.030579,-0.371887z" id="path1892"/>
     </g>
    </g>
    <path fill="#e8cdba" fill-rule="evenodd" stroke-width="1px" d="m262.831482,549.874634c18.978027,41.433289 40.34967,80.66748 96.943176,86.02002c30.429016,2.87793 62.678864,6.841919 103.770172,-10.923218c37.749207,-16.320129 5.540771,-75.083862 -20.480957,-75.096802c-20.746887,-0.010925 -25.15506,6.501953 -65.539032,-20.480957c-4.660034,-16.955383 -2.174133,-54.773865 -23.211792,-66.90448c-33.703369,-19.433777 -57.33728,-18.33728 -71.00061,-1.365417c-17.373474,21.580383 -29.194977,69.726196 -20.480957,88.750854z" id="path2368"/>
    <path fill="#000000" fill-rule="evenodd" stroke-width="1px" id="path2366" d="m283.097748,651.239807c30.749542,-52.282959 50.07547,-61.057068 93.638763,-68.75647c22.671082,-4.006958 76.694733,4.028931 91.900848,35.007996c19.398712,39.520447 44.387726,82.732666 38.583588,105.432129c-4.552765,17.805481 22.190247,37.699463 -5.096222,37.71344c-21.755249,0.011719 -64.140411,-1.503845 -95.134491,-39.549683c-4.886536,18.24353 -17.191223,29.368103 -34.086975,34.826416c-41.037842,13.257568 -77.97998,12.501648 -105.406006,-10.295044c-22.459991,-18.668884 4.310364,-75.182312 15.600494,-94.378784z"/>
    <path fill="#e8cdba" fill-rule="evenodd" stroke-width="1px" d="m297.157471,633.331665c24.439667,-29.144714 36.827087,-42.283325 81.139099,-48.468872c30.40033,-4.243591 72.855133,4.737549 88.003906,34.791199c18.511261,36.724426 41.035431,81.308044 35.500336,102.404785c-4.341736,16.548218 17.960175,36.042236 -8.061523,36.055176c-20.746918,0.010925 -74.440247,-9.787659 -87.516266,-46.978394c-4.660034,16.955383 -17.087158,41.364929 -39.596527,42.327332c-36.741821,1.570923 -55.95816,-14.871765 -68.814972,-29.041016c-18.616882,-20.517334 -14.099548,-75.056213 -0.654053,-91.09021z" id="path3341"/>
    <g id="g2515">
     <path fill="#000000" fill-rule="evenodd" stroke="#000000" stroke-width="0.566586px" id="path4330" d="m406.643372,536.333923c-17.870605,-38.402893 -49.808685,-78.86496 -93.725067,-96.42041c-17.079712,-0.165375 -30.195923,5.169434 -45.863098,14.169647c-15.435211,8.866943 -21.625702,29.998718 -19.178192,64.699066c3.108643,44.073669 30.615265,93.895325 30.615265,93.895325c48.279053,-64.17749 74.306213,-67.316101 128.151093,-76.343628z"/>
     <path fill="#87cdde" fill-rule="evenodd" stroke="#000000" stroke-width="0.551275px" d="m404.223328,536.572815c-17.387695,-37.365204 -48.462738,-76.733917 -91.192444,-93.814972c-16.618195,-0.160919 -29.379974,5.029755 -44.623779,13.786743c-15.018127,8.62735 -21.041351,29.18808 -18.659943,62.950775c3.024597,42.882751 29.865814,87.387817 29.865814,87.387817c45.054169,-67.010315 83.223236,-67.650879 124.610352,-70.310364z" id="path4332"/>
    </g>
    <path fill="#e8cdba" fill-rule="evenodd" stroke-width="1px" id="path14680" d="m477.178406,749.805664c-19.856934,-18.108887 -17.788544,-51.177185 15.375244,-88.150146c20.182861,-22.067444 49.063538,-76.703247 72.774841,-59.249512c15.823059,11.647278 -1.6203,25.773438 -5.375244,35.375244c8.861328,-6.061829 19.336792,-26.337585 33.699829,-10.924927c11.588196,12.435059 -7.976929,20.59668 -14.028442,31.143494c10.070496,-6.682678 23.548706,-21.769531 37.553772,-8.194153c13.552124,13.136292 -11.351624,21.745361 -19.52301,31.398438c12.098999,-5.579468 26.78064,-14.387634 29.877075,-0.759827c2.618042,11.522095 2.267395,7.225098 -29.557739,37.115051c-35.375244,33.224182 -97.134155,53.825378 -120.796326,32.246338z"/>
    <path fill="#ffffff" fill-rule="evenodd" stroke-width="1px" d="m214.401718,666.29126c8.206451,92.458862 68.341537,104.850403 141.923508,91.43811c-40.276398,-5.706604 -62.328308,-23.519653 -69.856476,-50.132263c-4.126038,-14.585876 -6.98587,-40.584167 0.241699,-59.843628l-72.308731,18.537781z" id="path3349"/>
   </g>
  </g>
 </g>
</svg>